<svg width="56" height="56" viewBox="0 0 56 56" fill="none" xmlns="http://www.w3.org/2000/svg">
<g clip-path="url(#clip0_822_1920)">
<path d="M16.333 30.333H13.9997C11.4223 30.333 9.33301 32.4223 9.33301 34.9997V41.9997C9.33301 44.577 11.4223 46.6663 13.9997 46.6663H16.333C18.9103 46.6663 20.9997 44.577 20.9997 41.9997V34.9997C20.9997 32.4223 18.9103 30.333 16.333 30.333Z" stroke="black" stroke-width="2" stroke-linecap="round" stroke-linejoin="round"/>
<path d="M42 30.333H39.6667C37.0893 30.333 35 32.4223 35 34.9997V41.9997C35 44.577 37.0893 46.6663 39.6667 46.6663H42C44.5773 46.6663 46.6667 44.577 46.6667 41.9997V34.9997C46.6667 32.4223 44.5773 30.333 42 30.333Z" stroke="black" stroke-width="2" stroke-linecap="round" stroke-linejoin="round"/>
<path d="M9.33301 34.9997V27.9997C9.33301 23.049 11.2997 18.301 14.8003 14.8003C18.301 11.2997 23.049 9.33301 27.9997 9.33301C32.9504 9.33301 37.6983 11.2997 41.199 14.8003C44.6997 18.301 46.6663 23.049 46.6663 27.9997V34.9997" stroke="black" stroke-width="2" stroke-linecap="round" stroke-linejoin="round"/>
</g>
<defs>
<clipPath id="clip0_822_1920">
<rect width="56" height="56" fill="white"/>
</clipPath>
</defs>
</svg>
