<svg width="56" height="56" viewBox="0 0 56 56" fill="none" xmlns="http://www.w3.org/2000/svg">
<g clip-path="url(#clip0_822_644)">
<path d="M16.3335 30.333H14.0002C11.4228 30.333 9.3335 32.4223 9.3335 34.9997V41.9997C9.3335 44.577 11.4228 46.6663 14.0002 46.6663H16.3335C18.9108 46.6663 21.0002 44.577 21.0002 41.9997V34.9997C21.0002 32.4223 18.9108 30.333 16.3335 30.333Z" stroke="black" stroke-width="2" stroke-linecap="round" stroke-linejoin="round"/>
<path d="M42 30.333H39.6667C37.0893 30.333 35 32.4223 35 34.9997V41.9997C35 44.577 37.0893 46.6663 39.6667 46.6663H42C44.5773 46.6663 46.6667 44.577 46.6667 41.9997V34.9997C46.6667 32.4223 44.5773 30.333 42 30.333Z" stroke="black" stroke-width="2" stroke-linecap="round" stroke-linejoin="round"/>
<path d="M9.3335 34.9997V27.9997C9.3335 23.049 11.3002 18.301 14.8008 14.8003C18.3015 11.2997 23.0495 9.33301 28.0002 9.33301C32.9509 9.33301 37.6988 11.2997 41.1995 14.8003C44.7002 18.301 46.6668 23.049 46.6668 27.9997V34.9997" stroke="black" stroke-width="2" stroke-linecap="round" stroke-linejoin="round"/>
</g>
<defs>
<clipPath id="clip0_822_644">
<rect width="56" height="56" fill="white"/>
</clipPath>
</defs>
</svg>
