<svg width="40" height="40" viewBox="0 0 40 40" fill="none" xmlns="http://www.w3.org/2000/svg">
<g clip-path="url(#clip0_261_4843)">
<path d="M11.6673 31.6667C13.5083 31.6667 15.0007 30.1743 15.0007 28.3333C15.0007 26.4924 13.5083 25 11.6673 25C9.82637 25 8.33398 26.4924 8.33398 28.3333C8.33398 30.1743 9.82637 31.6667 11.6673 31.6667Z" stroke="black" stroke-width="2" stroke-linecap="round" stroke-linejoin="round"/>
<path d="M28.3333 31.6667C30.1743 31.6667 31.6667 30.1743 31.6667 28.3333C31.6667 26.4924 30.1743 25 28.3333 25C26.4924 25 25 26.4924 25 28.3333C25 30.1743 26.4924 31.6667 28.3333 31.6667Z" stroke="black" stroke-width="2" stroke-linecap="round" stroke-linejoin="round"/>
<path d="M8.33398 28.334H7.00065C5.89608 28.334 5.00065 27.4386 5.00065 26.334V21.6673M3.33398 8.33398H19.6673C20.7719 8.33398 21.6673 9.22941 21.6673 10.334V28.334M15.0007 28.334H25.0007M31.6673 28.334H33.0007C34.1052 28.334 35.0007 27.4386 35.0007 26.334V18.334M35.0007 18.334H21.6673M35.0007 18.334L30.5833 10.9717C30.2218 10.3692 29.5708 10.0007 28.8683 10.0007H21.6673" stroke="black" stroke-width="2" stroke-linecap="round" stroke-linejoin="round"/>
<path d="M8 28H6.66667C5.5621 28 4.66667 27.1046 4.66667 26V21.3333M3 8H19.3333C20.4379 8 21.3333 8.89543 21.3333 10V28M15 28H24.6667M32 28H32.6667C33.7712 28 34.6667 27.1046 34.6667 26V18M34.6667 18H21.3333M34.6667 18L30.2493 10.6377C29.8878 10.0353 29.2368 9.66667 28.5343 9.66667H21.3333" stroke="black" stroke-width="2" stroke-linecap="round" stroke-linejoin="round"/>
<path d="M5 11.8184H11.6667" stroke="black" stroke-width="2" stroke-linecap="round" stroke-linejoin="round"/>
<path d="M1.81836 15.4541H8.48503" stroke="black" stroke-width="2" stroke-linecap="round" stroke-linejoin="round"/>
<path d="M5 19.0908H11.6667" stroke="black" stroke-width="2" stroke-linecap="round" stroke-linejoin="round"/>
</g>
<defs>
<clipPath id="clip0_261_4843">
<rect width="40" height="40" fill="white"/>
</clipPath>
</defs>
</svg>
