<svg width="80" height="80" viewBox="0 0 80 80" fill="none" xmlns="http://www.w3.org/2000/svg">
<path opacity="0.3" d="M80 40C80 62.0914 62.0914 80 40 80C17.9086 80 0 62.0914 0 40C0 17.9086 17.9086 0 40 0C62.0914 0 80 17.9086 80 40ZM10.9071 40C10.9071 56.0675 23.9325 69.0929 40 69.0929C56.0675 69.0929 69.0929 56.0675 69.0929 40C69.0929 23.9325 56.0675 10.9071 40 10.9071C23.9325 10.9071 10.9071 23.9325 10.9071 40Z" fill="#2F2E30"/>
<circle cx="40" cy="40" r="29" fill="black"/>
<g clip-path="url(#clip0_822_3530)">
<path d="M33.3327 45.0003C33.3327 43.1594 31.8403 41.667 29.9993 41.667C28.1584 41.667 26.666 43.1594 26.666 45.0003V48.3337C26.666 50.1746 28.1584 51.667 29.9993 51.667C31.8403 51.667 33.3327 50.1746 33.3327 48.3337V45.0003Z" stroke="white" stroke-width="2" stroke-linecap="round" stroke-linejoin="round"/>
<path d="M53.3327 45.0003C53.3327 43.1594 51.8403 41.667 49.9993 41.667C48.1584 41.667 46.666 43.1594 46.666 45.0003V48.3337C46.666 50.1746 48.1584 51.667 49.9993 51.667C51.8403 51.667 53.3327 50.1746 53.3327 48.3337V45.0003Z" stroke="white" stroke-width="2" stroke-linecap="round" stroke-linejoin="round"/>
<path d="M26.666 45.0003V40.0003C26.666 36.4641 28.0708 33.0727 30.5713 30.5722C33.0717 28.0718 36.4631 26.667 39.9993 26.667C43.5356 26.667 46.927 28.0718 49.4274 30.5722C51.9279 33.0727 53.3327 36.4641 53.3327 40.0003V45.0003" stroke="white" stroke-width="2" stroke-linecap="round" stroke-linejoin="round"/>
<path d="M50 51.667C50 52.9931 48.9464 54.2648 47.0711 55.2025C45.1957 56.1402 42.6522 56.667 40 56.667" stroke="white" stroke-width="2" stroke-linecap="round" stroke-linejoin="round"/>
</g>
<defs>
<clipPath id="clip0_822_3530">
<rect width="40" height="40" fill="white" transform="translate(20 20)"/>
</clipPath>
</defs>
</svg>
