<svg width="80" height="80" viewBox="0 0 80 80" fill="none" xmlns="http://www.w3.org/2000/svg">
<path opacity="0.3" d="M80 40C80 62.0914 62.0914 80 40 80C17.9086 80 0 62.0914 0 40C0 17.9086 17.9086 0 40 0C62.0914 0 80 17.9086 80 40ZM10.9071 40C10.9071 56.0675 23.9325 69.0929 40 69.0929C56.0675 69.0929 69.0929 56.0675 69.0929 40C69.0929 23.9325 56.0675 10.9071 40 10.9071C23.9325 10.9071 10.9071 23.9325 10.9071 40Z" fill="white"/>
<circle cx="40" cy="40" r="29" fill="white"/>
<path d="M39.9993 57.273C49.5388 57.273 57.272 49.5397 57.272 40.0003C57.272 30.4608 49.5388 22.7275 39.9993 22.7275C30.4598 22.7275 22.7266 30.4608 22.7266 40.0003C22.7266 49.5397 30.4598 57.273 39.9993 57.273Z" stroke="black" stroke-width="2" stroke-linecap="round" stroke-linejoin="round"/>
<path d="M45.0904 34.5473C44.761 33.9761 44.2825 33.5052 43.706 33.185C43.1295 32.8648 42.4768 32.7074 41.8176 32.7296H38.1813C37.2169 32.7296 36.2919 33.1126 35.61 33.7944C34.928 34.4761 34.5449 35.4008 34.5449 36.3649C34.5449 37.3291 34.928 38.2537 35.61 38.9355C36.2919 39.6173 37.2169 40.0003 38.1813 40.0003H41.8176C42.7821 40.0003 43.707 40.3833 44.3889 41.065C45.0709 41.7468 45.454 42.6714 45.454 43.6356C45.454 44.5998 45.0709 45.5244 44.3889 46.2062C43.707 46.8879 42.7821 47.2709 41.8176 47.2709H38.1813C37.5222 47.2931 36.8694 47.1357 36.293 46.8155C35.7165 46.4953 35.2379 46.0244 34.9086 45.4533" stroke="black" stroke-width="2.75" stroke-linecap="round" stroke-linejoin="round"/>
<path d="M40 28.1816V32.121M40 47.8786V51.818" stroke="black" stroke-width="2.75" stroke-linecap="round" stroke-linejoin="round"/>
</svg>
