<svg width="80" height="80" viewBox="0 0 80 80" fill="none" xmlns="http://www.w3.org/2000/svg">
<path opacity="0.3" d="M80 40C80 62.0914 62.0914 80 40 80C17.9086 80 0 62.0914 0 40C0 17.9086 17.9086 0 40 0C62.0914 0 80 17.9086 80 40ZM10.9071 40C10.9071 56.0675 23.9325 69.0929 40 69.0929C56.0675 69.0929 69.0929 56.0675 69.0929 40C69.0929 23.9325 56.0675 10.9071 40 10.9071C23.9325 10.9071 10.9071 23.9325 10.9071 40Z" fill="#2F2E30"/>
<circle cx="40" cy="40" r="29" fill="black"/>
<path d="M28.0985 50.5997L28.0982 50.5995C27.2255 49.9488 26.4249 48.9211 25.8421 47.7595C25.2592 46.5978 24.916 45.3456 24.916 44.2671V31.8671C24.916 29.5078 26.6708 26.9623 28.8905 26.1356L28.8915 26.1353L37.2077 23.0187C37.2078 23.0187 37.2079 23.0187 37.208 23.0187C37.9615 22.7371 38.9609 22.5879 39.9827 22.5879C41.0045 22.5879 42.004 22.7371 42.7575 23.0187C42.7575 23.0187 42.7576 23.0187 42.7576 23.0187L51.0739 26.1353L51.0749 26.1356C53.2945 26.9623 55.0493 29.5078 55.0493 31.8671V44.2504C55.0493 45.3375 54.706 46.5897 54.1234 47.7488C53.5409 48.9078 52.7404 49.9318 51.8671 50.5829L51.8669 50.5831L44.7002 55.9331L44.7002 55.933L44.694 55.9378C43.4113 56.9268 41.7234 57.4337 39.9993 57.4337C38.2767 57.4337 36.5845 56.9274 35.2642 55.949C35.2641 55.9489 35.2639 55.9488 35.2637 55.9487L28.0985 50.5997ZM37.7412 24.4319L37.7406 24.4322L29.4239 27.5489L29.4232 27.5491C28.5956 27.8607 27.8544 28.523 27.3235 29.2911C26.7924 30.0595 26.4327 30.9902 26.4327 31.8837V44.2671C26.4327 45.1615 26.7433 46.1897 27.2003 47.1015C27.6571 48.0131 28.2926 48.8727 29.0002 49.401L29.0002 49.4011L36.1666 54.7508C37.2286 55.545 38.6276 55.9254 40.0014 55.9254C41.3754 55.9254 42.7776 55.5449 43.8471 54.752L43.8485 54.7511L51.0151 49.4011L51.016 49.4004C51.7308 48.8643 52.3662 48.0055 52.8216 47.0948C53.2769 46.1842 53.5827 45.1605 53.5827 44.2671V31.8671C53.5827 30.9809 53.2223 30.0542 52.6919 29.2869C52.1614 28.5194 51.4216 27.8545 50.597 27.5343L50.597 27.5343L50.5915 27.5322L42.2748 24.4155L42.2748 24.4154L42.2658 24.4122C41.6276 24.187 40.7995 24.0836 40.0001 24.0858C39.2014 24.088 38.3745 24.1956 37.7412 24.4319ZM51.2492 25.6675L51.2492 25.6675L51.2492 25.6675Z" fill="#FAFAFA" stroke="#FAFAFA"/>
<path d="M37.4135 41.0531L37.7671 41.4067L38.1206 41.0531L44.4039 34.7698C44.692 34.4817 45.1754 34.4817 45.4635 34.7698C45.7516 35.0578 45.7516 35.5413 45.4635 35.8293L38.2968 42.996C38.1455 43.1473 37.9583 43.2162 37.7671 43.2162C37.5758 43.2162 37.3886 43.1473 37.2373 42.996L34.5539 40.3127C34.2659 40.0246 34.2659 39.5412 34.5539 39.2531C34.842 38.965 35.3254 38.965 35.6135 39.2531L37.4135 41.0531Z" fill="#FAFAFA" stroke="#FAFAFA"/>
</svg>
