<svg width="81" height="80" viewBox="0 0 81 80" fill="none" xmlns="http://www.w3.org/2000/svg">
<path opacity="0.3" d="M80.5 40C80.5 62.0914 62.5914 80 40.5 80C18.4086 80 0.5 62.0914 0.5 40C0.5 17.9086 18.4086 0 40.5 0C62.5914 0 80.5 17.9086 80.5 40ZM11.4071 40C11.4071 56.0675 24.4325 69.0929 40.5 69.0929C56.5675 69.0929 69.5929 56.0675 69.5929 40C69.5929 23.9325 56.5675 10.9071 40.5 10.9071C24.4325 10.9071 11.4071 23.9325 11.4071 40Z" fill="#2F2E30"/>
<circle cx="40.5" cy="40" r="29" fill="black"/>
<path d="M40.9269 38.146V38.646L41.4268 38.646C42.0906 38.646 42.738 38.8518 43.28 39.235C43.8219 39.6181 44.2317 40.1598 44.453 40.7855C44.4717 40.8384 44.4798 40.8945 44.4768 40.9505C44.4738 41.0066 44.4598 41.0615 44.4356 41.1121C44.4114 41.1627 44.3775 41.2081 44.3357 41.2456C44.294 41.2831 44.2453 41.3121 44.1924 41.3307C44.1395 41.3494 44.0834 41.3575 44.0273 41.3545C43.9713 41.3515 43.9164 41.3375 43.8658 41.3133C43.7635 41.2645 43.6849 41.177 43.6471 41.0701L43.647 41.0698C43.4847 40.6108 43.1839 40.2134 42.7863 39.9323C42.3887 39.6513 41.9137 39.5004 41.4267 39.5005L40.9269 39.5007V40.0005V43.7096V44.2096H41.4269C42.2779 44.2096 43.0942 44.5477 43.696 45.1495C44.2978 45.7513 44.6359 46.5675 44.6359 47.4186C44.6359 48.2697 44.2978 49.086 43.696 49.6878C43.0942 50.2896 42.2779 50.6277 41.4269 50.6277H40.9269V51.1277V51.5549H40.0723V51.1277V50.6277L39.5723 50.6277C38.9086 50.6277 38.2612 50.4219 37.7192 50.0387C37.1772 49.6555 36.7674 49.1137 36.5461 48.488L36.5463 48.4879L36.5412 48.4748C36.5207 48.4215 36.511 48.3646 36.5128 48.3075C36.5146 48.2504 36.5279 48.1943 36.5518 48.1424C36.5757 48.0905 36.6098 48.0439 36.652 48.0054L36.316 47.637L36.652 48.0054C36.6942 47.9669 36.7437 47.9373 36.7975 47.9182C36.8514 47.8992 36.9085 47.8912 36.9656 47.8946C37.0226 47.898 37.0783 47.9129 37.1295 47.9382C37.1807 47.9636 37.2263 47.999 37.2636 48.0422C37.3009 48.0855 37.3291 48.1359 37.3466 48.1902L37.3489 48.1973L37.3514 48.2043C37.6759 49.119 38.5474 49.7732 39.5723 49.7732H40.0723V49.2732V45.5641V45.0641H39.5723C38.7212 45.0641 37.905 44.726 37.3032 44.1242C36.7014 43.5224 36.3633 42.7062 36.3633 41.8551C36.3633 41.004 36.7014 40.1877 37.3032 39.5859C37.905 38.9841 38.7212 38.646 39.5723 38.646H40.0723V38.146V37.7188H40.9269V38.146ZM40.0723 40.0005V39.5005H39.5723C38.9479 39.5005 38.349 39.7486 37.9074 40.1902C37.4659 40.6317 37.2178 41.2306 37.2178 41.8551C37.2178 42.4795 37.4659 43.0784 37.9074 43.52C38.349 43.9615 38.9479 44.2096 39.5723 44.2096H40.0723V43.7096V40.0005ZM40.9269 49.2732V49.7732H41.4269C42.0513 49.7732 42.6502 49.5251 43.0918 49.0835C43.5333 48.642 43.7814 48.0431 43.7814 47.4186C43.7814 46.7942 43.5333 46.1953 43.0918 45.7537C42.6502 45.3122 42.0513 45.0641 41.4269 45.0641H40.9269V45.5641V49.2732Z" fill="#FAFAFA" stroke="#FAFAFA"/>
<path d="M33.2057 32.5778L33.5219 32.7C37.8707 34.3799 43.1083 34.3799 47.457 32.6982L47.7695 32.5773L48.0001 32.8204C49.8981 34.8212 51.4858 37.0949 52.7105 39.5659L52.7115 39.5679C53.9873 42.1704 54.7037 44.8135 54.5867 47.1302L54.5867 47.1302C54.4723 49.3913 53.5716 51.3573 51.5218 52.8061L51.5218 52.8061C49.4129 54.2962 45.9467 55.3337 40.5354 55.3337C35.1198 55.3337 31.6397 54.3142 29.5132 52.8423L29.5129 52.8421C27.4494 51.4121 26.5376 49.4721 26.4101 47.2375L33.2057 32.5778ZM33.2057 32.5778L32.9752 32.8263M33.2057 32.5778L32.9752 32.8263M32.9752 32.8263C31.1573 34.7857 29.4657 37.1898 28.251 39.693L28.2509 39.6931M32.9752 32.8263L28.2509 39.6931M28.2509 39.6931C26.9804 42.3124 26.2784 44.9433 26.4101 47.2373L28.2509 39.6931ZM50.3428 26.1815C50.7832 26.3993 51.1642 26.6077 51.4775 26.7944L48.3457 31.3726L48.1141 31.7113L48.401 32.0046C50.3394 33.9862 52.1697 36.5165 53.4805 39.192C54.7935 41.8722 55.5679 44.6626 55.441 47.1736C55.3151 49.6638 54.3054 51.8864 52.0163 53.5036C49.7051 55.1364 46.0382 56.1882 40.5364 56.1882C35.0332 56.1882 31.3544 55.1552 29.028 53.5442C26.7245 51.949 25.6991 49.7544 25.558 47.2858C25.4157 44.7952 26.1758 42.0154 27.4835 39.3202C28.7889 36.63 30.6229 34.0599 32.5812 31.9994L32.8589 31.7072L32.6323 31.3739L29.5225 26.798C29.6798 26.7053 29.8536 26.6076 30.043 26.5067L30.043 26.5067L30.0447 26.5058C30.2353 26.4033 30.4408 26.2978 30.6614 26.1903L30.8573 26.0947C33.1034 25.0241 36.6645 23.8096 40.5364 23.8096C44.4384 23.8096 47.9975 25.0429 50.2165 26.1202C50.2165 26.1202 50.2165 26.1202 50.2165 26.1202L50.3412 26.1807C50.3417 26.181 50.3422 26.1812 50.3428 26.1815ZM46.7245 32.0593L46.8779 32.0048L46.9698 31.8705L49.7117 27.8619L50.2968 27.0065L49.2631 27.0809C46.6696 27.2676 43.6003 27.8749 40.6554 28.7275C38.6714 29.3007 36.4387 29.2194 34.3339 28.8312C33.8046 28.7331 33.279 28.6163 32.758 28.481L31.4726 28.1472L32.2188 29.2459L33.9991 31.8672L34.091 32.0025L34.245 32.0573C38.1692 33.4544 42.7996 33.4544 46.7245 32.0593ZM32.08 26.4805L30.8004 27.0236L32.1328 27.42C32.8897 27.6451 33.6821 27.8414 34.4877 27.9906L34.4881 27.9907C36.523 28.3655 38.6079 28.4299 40.4168 27.9059L40.4175 27.9057C42.3859 27.3323 44.388 26.8813 46.4122 26.5553L46.4768 25.5829C44.7353 25.0586 42.6905 24.6641 40.5354 24.6641C37.2536 24.6641 34.2063 25.578 32.08 26.4805Z" fill="#FAFAFA" stroke="#FAFAFA"/>
</svg>
