<svg width="80" height="80" viewBox="0 0 80 80" fill="none" xmlns="http://www.w3.org/2000/svg">
<path opacity="0.3" d="M80 40C80 62.0914 62.0914 80 40 80C17.9086 80 0 62.0914 0 40C0 17.9086 17.9086 0 40 0C62.0914 0 80 17.9086 80 40ZM10.9071 40C10.9071 56.0675 23.9325 69.0929 40 69.0929C56.0675 69.0929 69.0929 56.0675 69.0929 40C69.0929 23.9325 56.0675 10.9071 40 10.9071C23.9325 10.9071 10.9071 23.9325 10.9071 40Z" fill="#2F2E30"/>
<circle cx="40" cy="40" r="29" fill="black"/>
<path d="M31.666 31.6662V28.3329C31.666 27.3677 31.9454 26.4231 32.4705 25.6132C32.9955 24.8033 33.7437 24.1627 34.6248 23.7686C35.5059 23.3746 36.4823 23.244 37.436 23.3926C38.3896 23.5413 39.2799 23.9628 39.9993 24.6062C40.7188 23.9628 41.6091 23.5413 42.5627 23.3926C43.5164 23.244 44.4928 23.3746 45.3739 23.7686C46.255 24.1627 47.0032 24.8033 47.5282 25.6132C48.0533 26.4231 48.3327 27.3677 48.3327 28.3329V31.6662H50.8327C51.4957 31.6662 52.1316 31.9296 52.6004 32.3985C53.0693 32.8673 53.3327 33.5032 53.3327 34.1662V50.8412C53.3327 52.3861 52.719 53.8677 51.6266 54.9601C50.5342 56.0525 49.0526 56.6662 47.5077 56.6662H33.3327C31.5646 56.6662 29.8689 55.9639 28.6186 54.7136C27.3684 53.4634 26.666 51.7677 26.666 49.9996V34.1662C26.666 33.5032 26.9294 32.8673 27.3982 32.3985C27.8671 31.9296 28.503 31.6662 29.166 31.6662H31.666ZM42.7243 54.1662C42.0445 53.1909 41.6808 52.0301 41.6827 50.8412V34.1662H29.166V49.9996C29.166 50.5467 29.2738 51.0886 29.4832 51.5941C29.6926 52.0996 29.9995 52.5589 30.3864 52.9458C30.7733 53.3328 31.2326 53.6397 31.7382 53.8491C32.2437 54.0585 32.7855 54.1662 33.3327 54.1662H42.7243ZM39.166 31.6662V28.3329C39.166 27.6699 38.9026 27.034 38.4338 26.5651C37.9649 26.0963 37.3291 25.8329 36.666 25.8329C36.003 25.8329 35.3671 26.0963 34.8982 26.5651C34.4294 27.034 34.166 27.6699 34.166 28.3329V31.6662H39.166ZM41.666 31.6662H45.8327V28.3329C45.8327 27.8183 45.674 27.3162 45.3781 26.8952C45.0822 26.4741 44.6636 26.1547 44.1794 25.9804C43.6952 25.8061 43.169 25.7855 42.6726 25.9214C42.1763 26.0572 41.7339 26.343 41.406 26.7396C41.5743 27.2396 41.666 27.7762 41.666 28.3329V31.6662ZM44.1827 50.8412C44.1827 51.7231 44.533 52.5688 45.1566 53.1924C45.7801 53.8159 46.6258 54.1662 47.5077 54.1662C48.3895 54.1662 49.2353 53.8159 49.8588 53.1924C50.4824 52.5688 50.8327 51.7231 50.8327 50.8412V34.1662H44.1827V50.8412Z" fill="white"/>
</svg>
