<svg width="20" height="20" viewBox="0 0 20 20" fill="none" xmlns="http://www.w3.org/2000/svg">
<path d="M10.0002 1.83304C9.75107 1.83121 9.50655 1.90008 9.29503 2.03166C9.0835 2.16323 8.91364 2.35212 8.80517 2.57638L6.9535 6.32971L2.81017 6.93138C2.56373 6.96689 2.33215 7.07069 2.14166 7.23104C1.95118 7.39139 1.8094 7.60187 1.73238 7.83865C1.65536 8.07543 1.64619 8.32904 1.70588 8.57077C1.76558 8.8125 1.89178 9.03268 2.07017 9.20638L5.07017 12.128L4.36184 16.2547C4.3197 16.4998 4.34697 16.7519 4.44056 16.9823C4.53415 17.2127 4.69033 17.4124 4.89145 17.5587C5.09257 17.7051 5.33061 17.7922 5.57866 17.8104C5.82672 17.8285 6.07491 17.7769 6.29517 17.6614L10.0002 15.713V1.83304Z" fill="#FFAD33"/>
<path opacity="0.25" d="M9.99967 1.83595C10.2488 1.83404 10.4998 2.00001 10.4998 2.00001C10.4998 2.00001 11.0862 2.20807 11.1947 2.44195L13.0464 6.35634L17.1898 6.98383C17.4363 7.02086 17.6678 7.12912 17.8583 7.29635C18.0488 7.46358 18.1906 7.68309 18.2676 7.93003C18.3446 8.17697 18.3538 8.44147 18.2941 8.69357C18.2344 8.94567 18.1082 9.1753 17.9298 9.35645L14.9298 12.4035L15.6381 16.7072C15.6802 16.9629 15.653 17.2257 15.5594 17.466C15.4658 17.7064 15.3096 17.9146 15.1085 18.0672C14.9074 18.2198 14.6693 18.3107 14.4213 18.3296C14.1732 18.3486 13.925 18.2947 13.7047 18.1743L9.99967 16.1423V1.83595Z" fill="black"/>
</svg>
